# xmcd CD database file
#
# Track frame offsets:
#	150
#	13326
#	44983
#	67669
#	86646
#
# Disc length: 1474 seconds
#
# Revision: 1
# Processed by: cddbd v1.5.1PL0 Copyright (c) Steve Scherf et al.
# Submitted via: CDex 1.51
#
DISCID=3f05c005
DTITLE=蒼天の雪 - 東方幻想組曲 Disc1 単奏
DYEAR=2005
DGENRE=Anime
TTITLE0=Midnight Rendezvous
TTITLE1=妖々夢3面ぷちメドレー
TTITLE2=蓬莱人形より 二色蓮花蝶〜Red and White
TTITLE3=えくちゅてんど☆あっしゅ 〜ほうらいのおにいちゃん〜
TTITLE4=そろそろ終わりにしましょう-whッヨウカンノトィsテントオウrcry
EXTD=YEAR: 2005
EXTT0=
EXTT1=
EXTT2=
EXTT3=
EXTT4=
PLAYORDER=
